<svg width="24" height="24" viewBox="0 0 24 24" fill="none" xmlns="http://www.w3.org/2000/svg">
<path d="M22 12L22.7071 12.7071L23.4142 12L22.7071 11.2929L22 12ZM15.7071 4.29289L15 3.58579L13.5858 5L14.2929 5.70711L15.7071 4.29289ZM14.2929 18.2929L13.5858 19L15 20.4142L15.7071 19.7071L14.2929 18.2929ZM2 13L22 13L22 11L2 11L2 13ZM14.2929 5.70711L21.2929 12.7071L22.7071 11.2929L15.7071 4.29289L14.2929 5.70711ZM21.2929 11.2929L14.2929 18.2929L15.7071 19.7071L22.7071 12.7071L21.2929 11.2929Z" fill="#9879E9"/>
</svg>
